G04 #@! TF.FileFunction,Copper,L2,Bot,Signal*
%FSLAX46Y46*%
G04 Gerber Fmt 4.6, Leading zero omitted, Abs format (unit mm)*
G04 Created by KiCad (PCBNEW (2016-10-14 revision fc07716)-master) date Sat Nov 26 20:43:01 2016*
%MOMM*%
%LPD*%
G01*
G04 APERTURE LIST*
%ADD10C,0.100000*%
%ADD11C,1.800000*%
%ADD12R,3.500120X3.500120*%
%ADD13O,1.524000X2.286000*%
%ADD14R,1.524000X2.286000*%
%ADD15C,0.254000*%
G04 APERTURE END LIST*
D10*
D11*
X134300000Y-90350000D03*
X134300000Y-92890000D03*
X134300000Y-95430000D03*
X134300000Y-97970000D03*
X134300000Y-100510000D03*
X134300000Y-103050000D03*
X134300000Y-105590000D03*
X134300000Y-108130000D03*
X111440000Y-108130000D03*
X111440000Y-105590000D03*
X111440000Y-103050000D03*
X111440000Y-100510000D03*
X111440000Y-97970000D03*
X111440000Y-95430000D03*
X111440000Y-92890000D03*
X111440000Y-90350000D03*
D12*
X115550000Y-71949480D03*
X115550000Y-65950000D03*
X110851000Y-68949740D03*
D13*
X115620000Y-77950000D03*
D14*
X113080000Y-77950000D03*
X129880000Y-66550000D03*
D13*
X132420000Y-66550000D03*
X132420000Y-74600000D03*
D14*
X129880000Y-74600000D03*
D15*
G36*
X137040000Y-110873000D02*
X105960000Y-110873000D01*
X105960000Y-108433991D01*
X109904735Y-108433991D01*
X110137932Y-108998371D01*
X110569357Y-109430551D01*
X111133330Y-109664733D01*
X111743991Y-109665265D01*
X112308371Y-109432068D01*
X112740551Y-109000643D01*
X112974733Y-108436670D01*
X112975265Y-107826009D01*
X112742068Y-107261629D01*
X112310643Y-106829449D01*
X111746670Y-106595267D01*
X111136009Y-106594735D01*
X110571629Y-106827932D01*
X110139449Y-107259357D01*
X109905267Y-107823330D01*
X109904735Y-108433991D01*
X105960000Y-108433991D01*
X105960000Y-88898573D01*
X109848008Y-88898573D01*
X109856088Y-88944598D01*
X109882207Y-88986709D01*
X109922452Y-89015619D01*
X109970697Y-89026927D01*
X110573048Y-89047346D01*
X110571629Y-89047932D01*
X110139449Y-89479357D01*
X109905267Y-90043330D01*
X109904735Y-90653991D01*
X110137932Y-91218371D01*
X110539182Y-91620323D01*
X110139449Y-92019357D01*
X109905267Y-92583330D01*
X109904735Y-93193991D01*
X110137932Y-93758371D01*
X110539182Y-94160323D01*
X110139449Y-94559357D01*
X109905267Y-95123330D01*
X109904735Y-95733991D01*
X110137932Y-96298371D01*
X110539182Y-96700323D01*
X110139449Y-97099357D01*
X109905267Y-97663330D01*
X109904735Y-98273991D01*
X110137932Y-98838371D01*
X110539182Y-99240323D01*
X110139449Y-99639357D01*
X109905267Y-100203330D01*
X109904735Y-100813991D01*
X110137932Y-101378371D01*
X110539182Y-101780323D01*
X110139449Y-102179357D01*
X109905267Y-102743330D01*
X109904735Y-103353991D01*
X110137932Y-103918371D01*
X110569357Y-104350551D01*
X111133330Y-104584733D01*
X111743991Y-104585265D01*
X112308371Y-104352068D01*
X112740551Y-103920643D01*
X112974733Y-103356670D01*
X112975265Y-102746009D01*
X112742068Y-102181629D01*
X112340818Y-101779677D01*
X112740551Y-101380643D01*
X112974733Y-100816670D01*
X112975265Y-100206009D01*
X112742068Y-99641629D01*
X112340818Y-99239677D01*
X112740551Y-98840643D01*
X112974733Y-98276670D01*
X112975265Y-97666009D01*
X112742068Y-97101629D01*
X112340818Y-96699677D01*
X112740551Y-96300643D01*
X112854177Y-96027000D01*
X113848000Y-96027000D01*
X113848000Y-109100000D01*
X113857780Y-109148873D01*
X113885406Y-109190011D01*
X113926672Y-109217445D01*
X113975295Y-109227000D01*
X133181677Y-109182438D01*
X133429357Y-109430551D01*
X133993330Y-109664733D01*
X134603991Y-109665265D01*
X135168371Y-109432068D01*
X135423649Y-109177236D01*
X135525295Y-109177000D01*
X135574039Y-109167150D01*
X135615137Y-109139467D01*
X135642513Y-109098162D01*
X135651999Y-109049526D01*
X135651359Y-108878283D01*
X135834733Y-108436670D01*
X135835265Y-107826009D01*
X135645716Y-107367265D01*
X135641958Y-106360925D01*
X135834733Y-105896670D01*
X135835265Y-105286009D01*
X135636143Y-104804097D01*
X135632556Y-103843567D01*
X135834733Y-103356670D01*
X135835265Y-102746009D01*
X135626570Y-102240929D01*
X135623154Y-101326210D01*
X135834733Y-100816670D01*
X135835265Y-100206009D01*
X135616997Y-99677760D01*
X135613752Y-98808852D01*
X135834733Y-98276670D01*
X135835265Y-97666009D01*
X135607424Y-97114592D01*
X135604350Y-96291494D01*
X135834733Y-95736670D01*
X135835265Y-95126009D01*
X135602068Y-94561629D01*
X135597874Y-94557427D01*
X135594919Y-93766265D01*
X135600551Y-93760643D01*
X135834733Y-93196670D01*
X135835265Y-92586009D01*
X135602068Y-92021629D01*
X135588351Y-92007888D01*
X135585467Y-91235700D01*
X135600551Y-91220643D01*
X135834733Y-90656670D01*
X135835265Y-90046009D01*
X135602068Y-89481629D01*
X135578829Y-89458350D01*
X135551999Y-82274526D01*
X135542429Y-82226632D01*
X135514981Y-82185376D01*
X135473834Y-82157764D01*
X135425252Y-82148000D01*
X110225252Y-82098000D01*
X110050000Y-82098000D01*
X110002721Y-82107129D01*
X109961212Y-82134194D01*
X109933221Y-82175084D01*
X109923008Y-82223573D01*
X109848008Y-88898573D01*
X105960000Y-88898573D01*
X105960000Y-76807000D01*
X111670560Y-76807000D01*
X111670560Y-79093000D01*
X111719843Y-79340765D01*
X111860191Y-79550809D01*
X112070235Y-79691157D01*
X112318000Y-79740440D01*
X113842000Y-79740440D01*
X114089765Y-79691157D01*
X114299809Y-79550809D01*
X114440157Y-79340765D01*
X114482228Y-79129255D01*
X114632172Y-79353661D01*
X115085391Y-79656493D01*
X115620000Y-79762833D01*
X116154609Y-79656493D01*
X116607828Y-79353661D01*
X116910660Y-78900442D01*
X117017000Y-78365833D01*
X117017000Y-77534167D01*
X116910660Y-76999558D01*
X116607828Y-76546339D01*
X116154609Y-76243507D01*
X115620000Y-76137167D01*
X115085391Y-76243507D01*
X114632172Y-76546339D01*
X114482228Y-76770745D01*
X114440157Y-76559235D01*
X114299809Y-76349191D01*
X114089765Y-76208843D01*
X113842000Y-76159560D01*
X112318000Y-76159560D01*
X112070235Y-76208843D01*
X111860191Y-76349191D01*
X111719843Y-76559235D01*
X111670560Y-76807000D01*
X105960000Y-76807000D01*
X105960000Y-70199420D01*
X113152500Y-70199420D01*
X113152500Y-73699540D01*
X113201783Y-73947305D01*
X113342131Y-74157349D01*
X113552175Y-74297697D01*
X113799940Y-74346980D01*
X117300060Y-74346980D01*
X117547825Y-74297697D01*
X117757869Y-74157349D01*
X117898217Y-73947305D01*
X117947500Y-73699540D01*
X117947500Y-73457000D01*
X128470560Y-73457000D01*
X128470560Y-75743000D01*
X128519843Y-75990765D01*
X128660191Y-76200809D01*
X128870235Y-76341157D01*
X129118000Y-76390440D01*
X130642000Y-76390440D01*
X130889765Y-76341157D01*
X131099809Y-76200809D01*
X131240157Y-75990765D01*
X131289440Y-75743000D01*
X131289440Y-73457000D01*
X131240157Y-73209235D01*
X131099809Y-72999191D01*
X130889765Y-72858843D01*
X130642000Y-72809560D01*
X129118000Y-72809560D01*
X128870235Y-72858843D01*
X128660191Y-72999191D01*
X128519843Y-73209235D01*
X128470560Y-73457000D01*
X117947500Y-73457000D01*
X117947500Y-70199420D01*
X117898217Y-69951655D01*
X117757869Y-69741611D01*
X117547825Y-69601263D01*
X117300060Y-69551980D01*
X113799940Y-69551980D01*
X113552175Y-69601263D01*
X113342131Y-69741611D01*
X113201783Y-69951655D01*
X113152500Y-70199420D01*
X105960000Y-70199420D01*
X105960000Y-65407000D01*
X128470560Y-65407000D01*
X128470560Y-67693000D01*
X128519843Y-67940765D01*
X128660191Y-68150809D01*
X128870235Y-68291157D01*
X129118000Y-68340440D01*
X130642000Y-68340440D01*
X130889765Y-68291157D01*
X131099809Y-68150809D01*
X131240157Y-67940765D01*
X131289440Y-67693000D01*
X131289440Y-65407000D01*
X131240157Y-65159235D01*
X131099809Y-64949191D01*
X130889765Y-64808843D01*
X130642000Y-64759560D01*
X129118000Y-64759560D01*
X128870235Y-64808843D01*
X128660191Y-64949191D01*
X128519843Y-65159235D01*
X128470560Y-65407000D01*
X105960000Y-65407000D01*
X105960000Y-62460000D01*
X137040000Y-62460000D01*
X137040000Y-110873000D01*
X137040000Y-110873000D01*
G37*
X137040000Y-110873000D02*
X105960000Y-110873000D01*
X105960000Y-108433991D01*
X109904735Y-108433991D01*
X110137932Y-108998371D01*
X110569357Y-109430551D01*
X111133330Y-109664733D01*
X111743991Y-109665265D01*
X112308371Y-109432068D01*
X112740551Y-109000643D01*
X112974733Y-108436670D01*
X112975265Y-107826009D01*
X112742068Y-107261629D01*
X112310643Y-106829449D01*
X111746670Y-106595267D01*
X111136009Y-106594735D01*
X110571629Y-106827932D01*
X110139449Y-107259357D01*
X109905267Y-107823330D01*
X109904735Y-108433991D01*
X105960000Y-108433991D01*
X105960000Y-88898573D01*
X109848008Y-88898573D01*
X109856088Y-88944598D01*
X109882207Y-88986709D01*
X109922452Y-89015619D01*
X109970697Y-89026927D01*
X110573048Y-89047346D01*
X110571629Y-89047932D01*
X110139449Y-89479357D01*
X109905267Y-90043330D01*
X109904735Y-90653991D01*
X110137932Y-91218371D01*
X110539182Y-91620323D01*
X110139449Y-92019357D01*
X109905267Y-92583330D01*
X109904735Y-93193991D01*
X110137932Y-93758371D01*
X110539182Y-94160323D01*
X110139449Y-94559357D01*
X109905267Y-95123330D01*
X109904735Y-95733991D01*
X110137932Y-96298371D01*
X110539182Y-96700323D01*
X110139449Y-97099357D01*
X109905267Y-97663330D01*
X109904735Y-98273991D01*
X110137932Y-98838371D01*
X110539182Y-99240323D01*
X110139449Y-99639357D01*
X109905267Y-100203330D01*
X109904735Y-100813991D01*
X110137932Y-101378371D01*
X110539182Y-101780323D01*
X110139449Y-102179357D01*
X109905267Y-102743330D01*
X109904735Y-103353991D01*
X110137932Y-103918371D01*
X110569357Y-104350551D01*
X111133330Y-104584733D01*
X111743991Y-104585265D01*
X112308371Y-104352068D01*
X112740551Y-103920643D01*
X112974733Y-103356670D01*
X112975265Y-102746009D01*
X112742068Y-102181629D01*
X112340818Y-101779677D01*
X112740551Y-101380643D01*
X112974733Y-100816670D01*
X112975265Y-100206009D01*
X112742068Y-99641629D01*
X112340818Y-99239677D01*
X112740551Y-98840643D01*
X112974733Y-98276670D01*
X112975265Y-97666009D01*
X112742068Y-97101629D01*
X112340818Y-96699677D01*
X112740551Y-96300643D01*
X112854177Y-96027000D01*
X113848000Y-96027000D01*
X113848000Y-109100000D01*
X113857780Y-109148873D01*
X113885406Y-109190011D01*
X113926672Y-109217445D01*
X113975295Y-109227000D01*
X133181677Y-109182438D01*
X133429357Y-109430551D01*
X133993330Y-109664733D01*
X134603991Y-109665265D01*
X135168371Y-109432068D01*
X135423649Y-109177236D01*
X135525295Y-109177000D01*
X135574039Y-109167150D01*
X135615137Y-109139467D01*
X135642513Y-109098162D01*
X135651999Y-109049526D01*
X135651359Y-108878283D01*
X135834733Y-108436670D01*
X135835265Y-107826009D01*
X135645716Y-107367265D01*
X135641958Y-106360925D01*
X135834733Y-105896670D01*
X135835265Y-105286009D01*
X135636143Y-104804097D01*
X135632556Y-103843567D01*
X135834733Y-103356670D01*
X135835265Y-102746009D01*
X135626570Y-102240929D01*
X135623154Y-101326210D01*
X135834733Y-100816670D01*
X135835265Y-100206009D01*
X135616997Y-99677760D01*
X135613752Y-98808852D01*
X135834733Y-98276670D01*
X135835265Y-97666009D01*
X135607424Y-97114592D01*
X135604350Y-96291494D01*
X135834733Y-95736670D01*
X135835265Y-95126009D01*
X135602068Y-94561629D01*
X135597874Y-94557427D01*
X135594919Y-93766265D01*
X135600551Y-93760643D01*
X135834733Y-93196670D01*
X135835265Y-92586009D01*
X135602068Y-92021629D01*
X135588351Y-92007888D01*
X135585467Y-91235700D01*
X135600551Y-91220643D01*
X135834733Y-90656670D01*
X135835265Y-90046009D01*
X135602068Y-89481629D01*
X135578829Y-89458350D01*
X135551999Y-82274526D01*
X135542429Y-82226632D01*
X135514981Y-82185376D01*
X135473834Y-82157764D01*
X135425252Y-82148000D01*
X110225252Y-82098000D01*
X110050000Y-82098000D01*
X110002721Y-82107129D01*
X109961212Y-82134194D01*
X109933221Y-82175084D01*
X109923008Y-82223573D01*
X109848008Y-88898573D01*
X105960000Y-88898573D01*
X105960000Y-76807000D01*
X111670560Y-76807000D01*
X111670560Y-79093000D01*
X111719843Y-79340765D01*
X111860191Y-79550809D01*
X112070235Y-79691157D01*
X112318000Y-79740440D01*
X113842000Y-79740440D01*
X114089765Y-79691157D01*
X114299809Y-79550809D01*
X114440157Y-79340765D01*
X114482228Y-79129255D01*
X114632172Y-79353661D01*
X115085391Y-79656493D01*
X115620000Y-79762833D01*
X116154609Y-79656493D01*
X116607828Y-79353661D01*
X116910660Y-78900442D01*
X117017000Y-78365833D01*
X117017000Y-77534167D01*
X116910660Y-76999558D01*
X116607828Y-76546339D01*
X116154609Y-76243507D01*
X115620000Y-76137167D01*
X115085391Y-76243507D01*
X114632172Y-76546339D01*
X114482228Y-76770745D01*
X114440157Y-76559235D01*
X114299809Y-76349191D01*
X114089765Y-76208843D01*
X113842000Y-76159560D01*
X112318000Y-76159560D01*
X112070235Y-76208843D01*
X111860191Y-76349191D01*
X111719843Y-76559235D01*
X111670560Y-76807000D01*
X105960000Y-76807000D01*
X105960000Y-70199420D01*
X113152500Y-70199420D01*
X113152500Y-73699540D01*
X113201783Y-73947305D01*
X113342131Y-74157349D01*
X113552175Y-74297697D01*
X113799940Y-74346980D01*
X117300060Y-74346980D01*
X117547825Y-74297697D01*
X117757869Y-74157349D01*
X117898217Y-73947305D01*
X117947500Y-73699540D01*
X117947500Y-73457000D01*
X128470560Y-73457000D01*
X128470560Y-75743000D01*
X128519843Y-75990765D01*
X128660191Y-76200809D01*
X128870235Y-76341157D01*
X129118000Y-76390440D01*
X130642000Y-76390440D01*
X130889765Y-76341157D01*
X131099809Y-76200809D01*
X131240157Y-75990765D01*
X131289440Y-75743000D01*
X131289440Y-73457000D01*
X131240157Y-73209235D01*
X131099809Y-72999191D01*
X130889765Y-72858843D01*
X130642000Y-72809560D01*
X129118000Y-72809560D01*
X128870235Y-72858843D01*
X128660191Y-72999191D01*
X128519843Y-73209235D01*
X128470560Y-73457000D01*
X117947500Y-73457000D01*
X117947500Y-70199420D01*
X117898217Y-69951655D01*
X117757869Y-69741611D01*
X117547825Y-69601263D01*
X117300060Y-69551980D01*
X113799940Y-69551980D01*
X113552175Y-69601263D01*
X113342131Y-69741611D01*
X113201783Y-69951655D01*
X113152500Y-70199420D01*
X105960000Y-70199420D01*
X105960000Y-65407000D01*
X128470560Y-65407000D01*
X128470560Y-67693000D01*
X128519843Y-67940765D01*
X128660191Y-68150809D01*
X128870235Y-68291157D01*
X129118000Y-68340440D01*
X130642000Y-68340440D01*
X130889765Y-68291157D01*
X131099809Y-68150809D01*
X131240157Y-67940765D01*
X131289440Y-67693000D01*
X131289440Y-65407000D01*
X131240157Y-65159235D01*
X131099809Y-64949191D01*
X130889765Y-64808843D01*
X130642000Y-64759560D01*
X129118000Y-64759560D01*
X128870235Y-64808843D01*
X128660191Y-64949191D01*
X128519843Y-65159235D01*
X128470560Y-65407000D01*
X105960000Y-65407000D01*
X105960000Y-62460000D01*
X137040000Y-62460000D01*
X137040000Y-110873000D01*
M02*
