M48
;DRILL file {KiCad (2016-10-14 revision fc07716)-master} date Sat Nov 26 20:24:58 2016
;FORMAT={-:-/ absolute / inch / decimal}
FMAT,2
INCH,TZ
T1C0.039
T2C0.039
T3C0.040
%
G90
G05
M72
T1
X4.452Y-3.0689
X4.552Y-3.0689
X5.1134Y-2.6201
X5.1134Y-2.937
X5.2134Y-2.6201
X5.2134Y-2.937
T3
X4.3874Y-3.5571
X4.3874Y-3.6571
X4.3874Y-3.7571
X4.3874Y-3.8571
X4.3874Y-3.9571
X4.3874Y-4.0571
X4.3874Y-4.1571
X4.3874Y-4.2571
X5.2874Y-3.5571
X5.2874Y-3.6571
X5.2874Y-3.7571
X5.2874Y-3.8571
X5.2874Y-3.9571
X5.2874Y-4.0571
X5.2874Y-4.1571
X5.2874Y-4.2571
T2
X4.3642Y-2.6752G85X4.3642Y-2.7539
G05
X4.5886Y-2.5965G85X4.5099Y-2.5965
G05
X4.5886Y-2.8327G85X4.5099Y-2.8327
G05
T0
M30
